<svg width="39" height="30" viewBox="0 0 39 30" fill="none" xmlns="http://www.w3.org/2000/svg">
<path d="M29.8317 7.66104C30.4448 7.66104 30.9394 8.15004 30.9394 8.74092C30.9394 9.34538 30.4518 9.83438 29.8317 9.83438C29.2047 9.83438 28.7101 9.34538 28.7101 8.74092C28.7101 8.14325 29.2047 7.66104 29.8317 7.66104ZM19.5139 0C20.3012 0 20.9282 0.618045 20.9282 1.37872C20.9282 2.14618 20.2942 2.75743 19.5139 2.75743C18.7406 2.75743 18.1067 2.14618 18.1067 1.37872C18.0997 0.618045 18.7406 0 19.5139 0ZM9.16828 7.66104C9.77439 7.66104 10.283 8.15004 10.283 8.74092C10.283 9.34538 9.77439 9.83438 9.16828 9.83438C8.54824 9.83438 8.04663 9.34538 8.04663 8.74092C8.04663 8.14325 8.54824 7.66104 9.16828 7.66104ZM0 9.10088C0 8.51 0.501609 8.021 1.12165 8.021C1.73473 8.021 2.23634 8.51 2.23634 9.10088C2.23634 9.70534 1.73473 10.1943 1.12165 10.1943C0.494643 10.1943 0 9.70534 0 9.10088ZM30.8976 29.4081C30.6399 29.9921 30.3473 30.1144 29.7551 29.9039C28.9609 29.605 25.1152 28.0905 19.4025 28.0429C13.6897 28.0905 9.84405 29.5711 9.04287 29.8699C8.45766 30.0669 8.16506 29.9989 7.92122 29.4081C7.58681 28.6202 7.71918 28.3078 8.29046 28.0361C9.78135 27.3638 13.8848 25.5707 19.1377 25.5707H19.3607H19.3746H19.4094H19.4303H19.4582H19.4791H19.6951C24.9341 25.5707 29.0306 27.3705 30.5423 28.0361C31.0927 28.3078 31.2251 28.6134 30.8976 29.4081ZM37.1259 12.1503L32.1099 25.7202C31.6849 26.8204 31.2599 26.6846 30.5006 26.2635C29.769 25.8356 25.3033 24.0019 19.7926 24.0019H19.1795C13.6758 24.0019 9.21704 25.8356 8.46463 26.2635C7.73312 26.6846 7.29422 26.8883 6.86924 25.7949L1.84619 12.1843C1.84619 12.1843 1.43516 11.1248 1.9089 10.9686C2.34781 10.8328 2.66131 11.4236 2.83548 11.7632C3.24652 12.5239 5.39229 16.5582 6.36067 17.6177C7.22455 18.5413 7.99786 18.5685 8.45767 18.4598C9.46088 18.2425 9.89979 17.1355 9.58628 14.1064C9.27278 11.0841 9.11951 10.7037 9.64899 10.6018C10.1158 10.5135 10.269 11.2674 10.3944 11.6274C10.5198 11.9873 11.5509 16.2865 13.3065 16.9249C14.686 17.4275 15.7937 16.9725 16.5252 15.3696C17.3403 13.563 18.1484 10.174 18.5038 7.07695C18.8242 4.21764 18.866 3.16493 19.4025 3.16493H19.5557C20.0991 3.16493 20.134 4.36706 20.4684 7.22637C20.8307 10.3302 21.6388 13.6445 22.4469 15.4511C23.1645 17.0607 24.2792 17.4683 25.6656 16.9725C27.4143 16.334 28.4593 12.0145 28.5777 11.6546C28.7101 11.2878 28.8564 10.5271 29.3232 10.6154C29.8666 10.7173 29.6924 11.0976 29.3928 14.1199C29.0793 17.149 29.5182 18.2493 30.5215 18.4734C30.9813 18.5821 31.7476 18.5481 32.6184 17.6313C33.5868 16.5717 35.7256 12.5375 36.1367 11.7768C36.3178 11.4304 36.6313 10.8396 37.0632 10.9822C37.5509 11.1316 37.1259 12.1503 37.1259 12.1503ZM37.8853 10.1943C37.2583 10.1943 36.7567 9.70534 36.7567 9.10088C36.7567 8.51 37.2583 8.021 37.8853 8.021C38.4984 8.021 39 8.51 39 9.10088C39 9.70534 38.4984 10.1943 37.8853 10.1943Z" fill="#FFBF00"/>
</svg>
